<?xml version="1.0" encoding="UTF-8"?><svg id="a" xmlns="http://www.w3.org/2000/svg" viewBox="0 0 392 136"><defs><style>.b{fill:#fff;}</style></defs><path class="b" d="M66,85.95l-5.7,5.8v13.53h-19.33V29.8h19.33v39.57l19.73-19.23h22.89l-22.89,23.6,24.82,31.53h-23.4l-15.46-19.33Z"/><path class="b" d="M154.19,55.49c4.81,4.17,7.22,10.56,7.22,19.18v30.62h-18.01v-7.12c-2.78,5.36-8.21,8.04-16.28,8.04-4.27,0-7.97-.75-11.09-2.24-3.12-1.49-5.48-3.51-7.07-6.05-1.59-2.54-2.39-5.44-2.39-8.7,0-5.22,2-9.27,6-12.16,4-2.88,10.17-4.32,18.51-4.32h10.99c-.34-5.83-4.24-8.75-11.7-8.75-2.64,0-5.32,.42-8.04,1.27-2.71,.85-5.02,2.02-6.92,3.51l-6.51-13.12c3.05-2.03,6.76-3.61,11.14-4.73,4.37-1.12,8.76-1.68,13.17-1.68,9.16,0,16.14,2.09,20.96,6.26Zm-15.77,36.88c1.69-1.08,2.91-2.68,3.66-4.78v-4.78h-8.34c-5.63,0-8.44,1.87-8.44,5.59,0,1.7,.64,3.05,1.93,4.07,1.29,1.02,3.05,1.53,5.29,1.53s4.2-.54,5.9-1.63Z"/><path class="b" d="M226.06,55.34c4.17,4.07,6.26,10.21,6.26,18.41v31.53h-19.33v-28.38c0-7.53-3.02-11.29-9.05-11.29-3.32,0-5.99,1.09-7.99,3.26-2,2.17-3,5.43-3,9.77v26.65h-19.33V29.8h19.33v25.43c2.1-1.97,4.58-3.46,7.43-4.48,2.85-1.02,5.9-1.53,9.16-1.53,6.85,0,12.36,2.03,16.53,6.1Z"/><path class="b" d="M256.93,102.54c-4.75-2.44-8.46-5.83-11.14-10.17-2.68-4.34-4.02-9.26-4.02-14.75s1.34-10.31,4.02-14.65c2.68-4.34,6.37-7.71,11.09-10.12,4.71-2.41,10.05-3.61,16.02-3.61s11.32,1.2,16.07,3.61c4.75,2.41,8.44,5.76,11.09,10.07,2.64,4.31,3.97,9.21,3.97,14.7s-1.32,10.41-3.97,14.75c-2.64,4.34-6.34,7.73-11.09,10.17-4.75,2.44-10.11,3.66-16.07,3.66s-11.22-1.22-15.97-3.66Zm24.31-15.21c2.17-2.34,3.26-5.58,3.26-9.71s-1.09-7.26-3.26-9.56c-2.17-2.3-4.95-3.46-8.34-3.46s-6.17,1.15-8.34,3.46c-2.17,2.31-3.26,5.49-3.26,9.56s1.08,7.38,3.26,9.71c2.17,2.34,4.95,3.51,8.34,3.51s6.17-1.17,8.34-3.51Z"/><path class="b" d="M351.03,103.04c-1.63,1.02-3.61,1.8-5.95,2.34s-4.83,.81-7.48,.81c-7.19,0-12.72-1.76-16.58-5.29-3.87-3.53-5.8-8.78-5.8-15.77v-18.51h-8.04v-14.44h8.04v-14.34h19.33v14.34h12.61v14.44h-12.61v18.31c0,1.97,.52,3.51,1.58,4.63,1.05,1.12,2.46,1.68,4.22,1.68,2.24,0,4.2-.58,5.9-1.73l4.78,13.53Z"/></svg>